<svg width="63" height="50" viewBox="0 0 63 50" fill="none" xmlns="http://www.w3.org/2000/svg">
<path d="M54.4927 27.1687V41.7815H8.50732V35.389L19.0842 25.1137L24.1428 30.1368L40.9268 13.4707L54.4927 27.1687Z" fill="black"/>
<path d="M14.7161 8.2185C18.2713 8.21888 21.1538 11.0824 21.1538 14.6127C21.1535 18.1428 18.2711 21.0049 14.7161 21.0053C11.1607 21.0053 8.27697 18.1431 8.27661 14.6127C8.27661 11.0821 11.1605 8.2185 14.7161 8.2185Z" fill="black"/>
<path fill-rule="evenodd" clip-rule="evenodd" d="M57.251 0C60.4256 0 63 2.55632 63 5.70866V44.293L62.9932 44.5866C62.8391 47.6024 60.3263 50 57.251 50H5.74902L5.45166 49.9932C2.51286 49.8449 0.1559 47.5049 0.00683594 44.5866L0 44.293V5.70866C0 2.65506 2.41482 0.159999 5.45166 0.00678794L5.74902 0H57.251ZM5.74902 4.3375C4.98711 4.3375 4.36816 4.9521 4.36816 5.70866V44.293C4.36836 45.0494 4.98723 45.6625 5.74902 45.6625H57.251C58.0128 45.6625 58.6316 45.0494 58.6318 44.293V5.70866C58.6318 4.9521 58.0129 4.3375 57.251 4.3375H5.74902Z" fill="black"/>
</svg>
