<svg width="250" height="250" viewBox="0 0 250 250" fill="none" xmlns="http://www.w3.org/2000/svg">
<path d="M73.6113 210.661C81.884 215.677 90.956 219.504 100.591 221.912L93.3633 250C80.9772 246.716 69.339 241.551 58.7627 234.821L73.6113 210.661ZM178.52 241.901C171.554 245.261 164.236 247.985 156.635 250L149.346 221.674C155.21 220.146 160.862 218.091 166.246 215.562L178.52 241.901ZM29.0557 150.148C33.1088 166.593 41.3002 181.408 52.4629 193.426L32.0996 212.059C18.2985 196.486 8.2338 177.427 3.33887 156.337L29.0557 150.148ZM243.907 166.343C239.963 178.683 234.212 190.196 226.97 200.557L204.174 184.125C209.957 176.137 214.568 167.246 217.755 157.703L243.907 166.343ZM125 0C168.673 0 207.115 22.7649 229.466 57.2568L206.63 72.5146C189.05 45.8463 158.83 28.2471 124.5 28.2471C70.2118 28.2471 26.2022 72.2567 26.2021 126.545C26.2021 130.672 26.4582 134.74 26.9521 138.734L0.838867 141.844C0.285383 136.991 0 132.056 0 127.053C0.000247456 56.8834 55.9646 0 125 0ZM236.714 69.9951C245.212 87.1518 250 106.534 250 127.053C250 128.534 249.972 130.01 249.923 131.479L222.718 130.516C222.77 129.199 222.798 127.875 222.798 126.545C222.798 110.682 219.039 95.6978 212.365 82.4316L236.714 69.9951Z" fill="black"/>
</svg>
