<svg width="192" height="192" viewBox="0 0 192 192" fill="none" xmlns="http://www.w3.org/2000/svg">
<path d="M161.88 158.4C162.04 159.307 162.04 160.24 161.88 161.2C160.227 161.467 158.84 161.653 157.72 161.76C156.653 161.92 155.587 162 154.52 162C151.693 162 149.507 161.653 147.96 160.96C146.467 160.267 145.347 159.227 144.6 157.84C143.907 156.453 143.373 154.72 143 152.64L141.08 142.16C140.707 140.027 139.853 138.4 138.52 137.28C137.24 136.16 135.293 135.6 132.68 135.6H121.88V132.4H132.68C135.293 132.4 137.533 131.44 139.4 129.52C141.32 127.547 142.28 124.507 142.28 120.4C142.28 116.293 141.347 113.28 139.48 111.36C137.613 109.387 135.08 108.4 131.88 108.4H128.12C127.853 110.8 127.64 113.067 127.48 115.2C127.373 117.333 127.32 119.6 127.32 122V144.4C127.32 146.8 127.373 149.2 127.48 151.6C127.64 153.947 127.853 156.213 128.12 158.4H133.48C133.693 159.36 133.693 160.347 133.48 161.36C131.667 161.253 129.64 161.2 127.4 161.2C125.213 161.2 123.187 161.2 121.32 161.2C119.507 161.2 117.48 161.2 115.24 161.2C113.053 161.2 111.027 161.253 109.16 161.36C108.947 160.347 108.947 159.36 109.16 158.4H114.52C114.787 156.213 114.973 153.947 115.08 151.6C115.24 149.2 115.32 146.8 115.32 144.4V122C115.32 119.6 115.24 117.227 115.08 114.88C114.973 112.48 114.787 110.187 114.52 108H109.16C108.947 106.987 108.947 106 109.16 105.04C111.027 105.093 113.053 105.147 115.24 105.2C117.48 105.2 119.507 105.2 121.32 105.2H134.28C138.173 105.2 141.72 105.68 144.92 106.64C148.12 107.547 150.68 109.04 152.6 111.12C154.52 113.2 155.48 115.973 155.48 119.44C155.48 122.427 154.787 124.853 153.4 126.72C152.013 128.587 150.253 130.027 148.12 131.04C146.04 132 143.933 132.747 141.8 133.28C145.32 133.493 148.013 134.347 149.88 135.84C151.8 137.28 153.027 139.387 153.56 142.16L155.56 152.64C155.987 154.88 156.653 156.373 157.56 157.12C158.467 157.813 159.907 158.24 161.88 158.4Z" fill="black"/>
<path d="M82.9142 140.095V154.115H39.1048V147.982L49.1812 138.124L54.0005 142.943L69.9902 126.953L82.9142 140.095Z" fill="black"/>
<path d="M45.0197 121.914C48.4068 121.914 51.1529 124.662 51.1529 128.049C51.1525 131.436 48.4066 134.182 45.0197 134.182C41.6326 134.182 38.8853 131.436 38.885 128.049C38.885 124.661 41.6324 121.914 45.0197 121.914Z" fill="black"/>
<path fill-rule="evenodd" clip-rule="evenodd" d="M85.542 114.029C88.5664 114.029 91.019 116.482 91.019 119.506V156.525L91.0125 156.806C90.8658 159.7 88.4719 162 85.542 162H36.477L36.1937 161.993C33.394 161.851 31.1485 159.606 31.0065 156.806L31 156.525V119.506C31 116.576 33.3006 114.183 36.1937 114.036L36.477 114.029H85.542ZM36.477 118.191C35.7511 118.191 35.1615 118.78 35.1615 119.506V156.525C35.1617 157.25 35.7513 157.839 36.477 157.839H85.542C86.2678 157.839 86.8574 157.25 86.8575 156.525V119.506C86.8575 118.78 86.2679 118.191 85.542 118.191H36.477Z" fill="black"/>
<path d="M31.16 87.32C30.9467 86.3067 30.9467 85.32 31.16 84.36H36.52C36.7867 82.1733 36.9733 79.9067 37.08 77.56C37.24 75.16 37.32 72.76 37.32 70.36V47.96C37.32 45.56 37.24 43.1867 37.08 40.84C36.9733 38.44 36.7867 36.1467 36.52 33.96H31.16C30.9467 32.9467 30.9467 31.96 31.16 31C33.0267 31.0533 35.0533 31.1067 37.24 31.16C39.48 31.16 41.5067 31.16 43.32 31.16C45.1867 31.16 47.2133 31.16 49.4 31.16C51.64 31.1067 53.6667 31.0533 55.48 31C55.6933 31.96 55.6933 32.9467 55.48 33.96H50.12C49.8533 36.1467 49.64 38.44 49.48 40.84C49.3733 43.1867 49.32 45.56 49.32 47.96V70.36C49.32 72.76 49.3733 75.16 49.48 77.56C49.64 79.9067 49.8533 82.1733 50.12 84.36H55.48C55.6933 85.32 55.6933 86.3067 55.48 87.32C53.6667 87.2133 51.64 87.16 49.4 87.16C47.2133 87.16 45.1867 87.16 43.32 87.16C41.5067 87.16 39.48 87.16 37.24 87.16C35.0533 87.16 33.0267 87.2133 31.16 87.32Z" fill="black"/>
<path d="M156.964 47.1969V55.9085H129.742V52.0975L136.003 45.9718L138.998 48.9664L148.933 39.0307L156.964 47.1969Z" fill="black"/>
<path d="M133.417 35.8995C135.522 35.8998 137.228 37.6069 137.228 39.7115C137.228 41.816 135.522 43.5223 133.417 43.5225C131.312 43.5225 129.605 41.8162 129.605 39.7115C129.605 37.6067 131.312 35.8995 133.417 35.8995Z" fill="black"/>
<path fill-rule="evenodd" clip-rule="evenodd" d="M158.597 31C160.476 31 162 32.524 162 34.4033V57.4058L161.996 57.5808C161.905 59.3786 160.417 60.808 158.597 60.808H128.109L127.933 60.804C126.193 60.7156 124.798 59.3205 124.71 57.5808L124.706 57.4058V34.4033C124.706 32.5828 126.135 31.0954 127.933 31.004L128.109 31H158.597ZM128.109 33.5858C127.658 33.5858 127.291 33.9522 127.291 34.4033V57.4058C127.292 57.8567 127.658 58.2222 128.109 58.2222H158.597C159.048 58.2222 159.414 57.8567 159.414 57.4058V34.4033C159.414 33.9522 159.048 33.5858 158.597 33.5858H128.109Z" fill="black"/>
<path d="M118.641 71.7813C118.641 71.2291 118.193 70.7813 117.641 70.7813H108.641C108.089 70.7813 107.641 71.2291 107.641 71.7813C107.641 72.3336 108.089 72.7813 108.641 72.7813H116.641V80.7813C116.641 81.3336 117.089 81.7813 117.641 81.7813C118.193 81.7813 118.641 81.3336 118.641 80.7813V71.7813ZM86.5635 102.859L87.2706 103.566L88.8245 102.012L88.1174 101.305L87.4103 100.598L85.8564 102.152L86.5635 102.859ZM91.2251 98.197L91.9322 98.9042L95.0399 95.7964L94.3328 95.0893L93.6257 94.3822L90.518 97.4899L91.2251 98.197ZM97.4406 91.9816L98.1477 92.6887L101.255 89.581L100.548 88.8739L99.8412 88.1668L96.7335 91.2745L97.4406 91.9816ZM103.656 85.7661L104.363 86.4732L107.471 83.3655L106.764 82.6584L106.057 81.9513L102.949 85.059L103.656 85.7661ZM109.871 79.5507L110.579 80.2578L113.686 77.15L112.979 76.4429L112.272 75.7358L109.164 78.8436L109.871 79.5507ZM116.087 73.3352L116.794 74.0423L118.348 72.4885L117.641 71.7813L116.934 71.0742L115.38 72.6281L116.087 73.3352ZM118.641 71.7813C118.641 71.2291 118.193 70.7813 117.641 70.7813H108.641C108.089 70.7813 107.641 71.2291 107.641 71.7813C107.641 72.3336 108.089 72.7813 108.641 72.7813H116.641V80.7813C116.641 81.3336 117.089 81.7813 117.641 81.7813C118.193 81.7813 118.641 81.3336 118.641 80.7813V71.7813ZM86.5635 102.859L87.2706 103.566L88.8245 102.012L88.1174 101.305L87.4103 100.598L85.8564 102.152L86.5635 102.859ZM91.2251 98.197L91.9322 98.9042L95.0399 95.7964L94.3328 95.0893L93.6257 94.3822L90.518 97.4899L91.2251 98.197ZM97.4406 91.9816L98.1477 92.6887L101.255 89.581L100.548 88.8739L99.8412 88.1668L96.7335 91.2745L97.4406 91.9816ZM103.656 85.7661L104.363 86.4732L107.471 83.3655L106.764 82.6584L106.057 81.9513L102.949 85.059L103.656 85.7661ZM109.871 79.5507L110.579 80.2578L113.686 77.15L112.979 76.4429L112.272 75.7358L109.164 78.8436L109.871 79.5507ZM116.087 73.3352L116.794 74.0423L118.348 72.4885L117.641 71.7813L116.934 71.0742L115.38 72.6281L116.087 73.3352Z" fill="black"/>
</svg>
